<?xml version="1.0" encoding="UTF-8" standalone="no"?>
<!-- Created with Inkscape (http://www.inkscape.org/) -->

<svg
   width="23in"
   height="9in"
   viewBox="0 0 584.2 228.6"
   version="1.1"
   id="svg5"
   inkscape:version="1.2.2 (732a01da63, 2022-12-09)"
   sodipodi:docname="sd-next-icon.svg"
   xmlns:inkscape="http://www.inkscape.org/namespaces/inkscape"
   xmlns:sodipodi="http://sodipodi.sourceforge.net/DTD/sodipodi-0.dtd"
   xmlns="http://www.w3.org/2000/svg"
   xmlns:svg="http://www.w3.org/2000/svg">
  <sodipodi:namedview
     id="namedview7"
     pagecolor="#ffffff"
     bordercolor="#000000"
     borderopacity="0.25"
     inkscape:showpageshadow="2"
     inkscape:pageopacity="0.0"
     inkscape:pagecheckerboard="0"
     inkscape:deskcolor="#d1d1d1"
     inkscape:document-units="mm"
     showgrid="false"
     inkscape:zoom="0.25323113"
     inkscape:cx="902.33772"
     inkscape:cy="258.65698"
     inkscape:window-width="1920"
     inkscape:window-height="991"
     inkscape:window-x="-9"
     inkscape:window-y="-9"
     inkscape:window-maximized="1"
     inkscape:current-layer="layer1" />
  <defs
     id="defs2" />
  <g
     inkscape:label="Layer 1"
     inkscape:groupmode="layer"
     id="layer1">
    <g
       id="g460"
       transform="translate(-1.4721324,-2.5256079)">
      <text
         xml:space="preserve"
         style="font-style:normal;font-variant:normal;font-weight:normal;font-stretch:normal;font-size:176.389px;font-family:Gadugi;-inkscape-font-specification:Gadugi;fill:#f2fd27;strokeWidth:0.264583"
         x="14.323454"
         y="143.20346"
         id="text236"><tspan
           sodipodi:role="line"
           id="tspan234"
           style="font-style:normal;font-variant:normal;font-weight:normal;font-stretch:normal;font-family:Gadugi;-inkscape-font-specification:Gadugi;fill:#000000;fill-opacity:1;strokeWidth:0.264583"
           x="14.323454"
           y="143.20346">S</tspan></text>
      <path
         id="text1780"
         style="font-style:normal;font-variant:normal;font-weight:normal;font-stretch:normal;font-size:176.389px;font-family:Gadugi;-inkscape-font-specification:Gadugi;fill:#000000;fill-opacity:1;strokeWidth:0.289703"
         d="M 208.78978,23.517653 V 146.52792 h 14.89888 V 63.429406 c 0,-10.094972 -0.23685,-16.679915 -0.70983,-19.75521 h 0.53211 c 1.0642,3.142151 2.4242,6.150588 4.07963,9.025313 l 53.57584,93.828411 h 30.14151 V 23.517653 H 296.40904 V 124.80156 c 0,9.96128 0.29578,17.0146 0.88701,21.15956 h -0.35492 c -0.76858,-1.7382 -2.48279,-4.94721 -5.1433,-9.627 L 228.12266,23.517653 Z" />
      <path
         id="text1784"
         style="font-style:normal;font-variant:normal;font-weight:normal;font-stretch:normal;font-size:176.389px;font-family:Gadugi;-inkscape-font-specification:Gadugi;fill:#000000;fill-opacity:1;strokeWidth:0.264583"
         d="M 296.09368,22.946317 V 146.45298 h 65.45699 V 133.36179 H 310.56308 V 90.125671 H 355.1769 V 77.120785 H 310.56308 V 36.038024 h 48.23117 V 22.946317 Z m 78.54818,0 35.93993,57.975264 10.43709,12.808 c 0.10429,-0.23057 0.21767,-0.47718 0.30385,-0.67541 h 0.34468 c 0.43753,1.11812 0.8589,2.12156 1.26556,3.02359 l 0.51521,0.63252 -0.17725,0.10077 c 0.43065,0.91049 0.84418,1.70049 1.23869,2.358 l 28.42204,47.283929 h 17.65628 L 431.22755,84.182881 470.07118,22.946317 h -16.62276 l -26.26868,43.064029 c -1.37804,2.181903 -2.9861,5.167483 -4.82348,8.957079 h -0.34416 c -1.26321,-2.870906 -2.72737,-5.741996 -4.3925,-8.612909 L 392.38393,22.946317 Z m 102.06095,0 v 13.091707 h 35.57044 V 146.45298 h 14.4694 V 36.038024 h 35.65674 V 22.946317 Z m -67.76588,67.077034 -37.56774,56.429629 h 17.74207 L 417.9989,99.808281 417.25528,100.231 Z" />
      <text
         xml:space="preserve"
         style="font-style:normal;font-variant:normal;font-weight:normal;font-stretch:normal;font-size:176.389px;font-family:Gadugi;-inkscape-font-specification:Gadugi;fill:#000000;fill-opacity:1;strokeWidth:0.264583"
         x="87.243256"
         y="143.66403"
         id="text1788"><tspan
           sodipodi:role="line"
           id="tspan1786"
           style="strokeWidth:0.264583"
           x="87.243256"
           y="143.66403">D</tspan></text>
      <text
         xml:space="preserve"
         style="font-style:normal;font-variant:normal;font-weight:normal;font-stretch:normal;font-size:70.5556px;font-family:Gadugi;-inkscape-font-specification:Gadugi;fill:#d5f131;fill-opacity:1;strokeWidth:0.264583"
         x="175.0089"
         y="214.71243"
         id="text3766"><tspan
           sodipodi:role="line"
           id="tspan3764"
           style="font-style:normal;font-variant:normal;font-weight:normal;font-stretch:normal;font-size:70.5556px;font-family:'New Gulim';-inkscape-font-specification:'New Gulim';fill:#303900;fill-opacity:1;strokeWidth:0.264583"
           x="175.0089"
           y="214.71243">CLIENT</tspan></text>
    </g>
  </g>
</svg>
